# xmcd
#
# Track frame offsets:
#   150
#   17195
#   32365
#   47640
#   62270
#   73555
#   88475
#   102340
#   114195
#   129265
#   141425
#   155000
#   166907
#   180695
#   192615
#   207810
#   223630
#   237955
#   248955
#   262725
#
# Disc length: 3671 seconds
#
# Revision: 0
# Processed by: cddbd v1.5.1PL0 Copyright (c) Steve Scherf et al.
# Submitted via: uFREEDB ActiveX Control 1.5
#
DISCID=180e5514
DTITLE=Rob and Robinson - 20 preferidas
DYEAR=1900
DGENRE=Soundtrack
TTITLE0=Primeiro Lugar
TTITLE1=Eu te amo
TTITLE2=Camisa de Vênus
TTITLE3=Amar, te amar e te amar
TTITLE4=Amor Total
TTITLE5=Amor ao ar Livre
TTITLE6=Se você me visitar
TTITLE7=Banho de Cachoeira
TTITLE8=Nossos Pedaços
TTITLE9=Posto de estrada
TTITLE10=Correio Elegante
TTITLE11=Zero a Zero
TTITLE12=Quando eu disse ADEUS
TTITLE13=Não para sanfoneiro
TTITLE14=Aguenta coração
TTITLE15=Segredo de Dois
TTITLE16=Saudade Cruel
TTITLE17=Puxa Vida
TTITLE18=Vespeira
TTITLE19=Aprendi a te amar
EXTD=
EXTT0=
EXTT1=
EXTT2=
EXTT3=
EXTT4=
EXTT5=
EXTT6=
EXTT7=
EXTT8=
EXTT9=
EXTT10=
EXTT11=
EXTT12=
EXTT13=
EXTT14=
EXTT15=
EXTT16=
EXTT17=
EXTT18=
EXTT19=
PLAYORDER=
